<?xml version="1.0" encoding="UTF-8"?> <svg xmlns="http://www.w3.org/2000/svg" width="24" height="24" viewBox="0 0 24 24" fill="none"> <path fill-rule="evenodd" clip-rule="evenodd" d="M11.9927 0C15.1741 0.00117818 18.1602 1.23971 20.4055 3.48777C22.6512 5.73583 23.8869 8.72356 23.8849 11.9018C23.8821 18.4586 18.5467 23.794 11.9923 23.794H11.9875C9.9974 23.7933 8.0414 23.2941 6.30445 22.3464L0 24L1.68733 17.8372C0.646822 16.034 0.0992292 13.9879 0.100015 11.8919C0.102371 5.33463 5.43779 0 11.9927 0ZM11.9891 21.7853H11.9931C17.4411 21.7853 21.8753 17.3511 21.8774 11.9002C21.8781 9.2589 20.8512 6.77551 18.9848 4.90722C17.1185 3.03892 14.6368 2.00915 11.9966 2.00836C6.54454 2.00836 2.10995 6.44217 2.10799 11.8923C2.10716 13.7602 2.62979 15.5788 3.61911 17.1527L3.85405 17.5269L2.85561 21.1745L6.59695 20.1932L6.95804 20.4075C8.47553 21.3079 10.2152 21.7845 11.9891 21.7853ZM15.384 13.4153C15.6567 13.5145 17.1174 14.2332 17.4147 14.382C17.4721 14.4108 17.5258 14.4368 17.5757 14.4609C17.7838 14.5615 17.9242 14.6294 17.9841 14.7296C18.0583 14.8535 18.0583 15.4487 17.8107 16.1427C17.5631 16.8368 16.3761 17.4702 15.8051 17.5555C15.2928 17.6321 14.6452 17.6638 13.9332 17.4376C13.5015 17.3007 12.9483 17.1182 12.2392 16.8118C9.45229 15.6083 7.56925 12.9069 7.21453 12.398C7.18983 12.3626 7.17255 12.3377 7.16291 12.3248L7.16177 12.3233C7.00887 12.1199 5.94938 10.7101 5.94938 9.251C5.94938 7.88282 6.62116 7.16566 6.93081 6.83507C6.95219 6.8122 6.97187 6.79121 6.98946 6.77197C7.2621 6.47433 7.58391 6.40015 7.78193 6.40015C7.97996 6.40015 8.17837 6.40172 8.35139 6.41044C8.37277 6.41154 8.39503 6.4114 8.41802 6.41123C8.59126 6.41018 8.80704 6.40892 9.02007 6.92038C9.10228 7.11792 9.22276 7.4112 9.34974 7.72028C9.60515 8.34183 9.88678 9.02736 9.93635 9.12676C10.0106 9.27556 10.0601 9.44902 9.96096 9.64743C9.94586 9.6775 9.93194 9.70591 9.91863 9.73305C9.84436 9.88433 9.7896 9.996 9.66371 10.1431C9.61431 10.2008 9.56326 10.263 9.51216 10.3252C9.40975 10.4499 9.30729 10.5747 9.21809 10.6637C9.06925 10.8117 8.91452 10.9725 9.08793 11.2701C9.26134 11.5673 9.85776 12.5403 10.7411 13.3284C11.6904 14.1755 12.5156 14.5334 12.9341 14.7149C13.0159 14.7504 13.0822 14.7791 13.1308 14.8035C13.4277 14.9523 13.6011 14.9277 13.7745 14.7292C13.9479 14.5308 14.5174 13.8618 14.7154 13.5641C14.9134 13.2665 15.1118 13.3161 15.384 13.4153Z" fill="#CD1719"></path> </svg> 